<svg width="332" height="121" viewBox="0 0 332 121" fill="none" xmlns="http://www.w3.org/2000/svg">
<path d="M25.1 31.25H12.6L10.7 37H0.4L13.25 1.75H24.55L37.35 37H27L25.1 31.25ZM22.65 23.75L18.85 12.35L15.1 23.75H22.65ZM50.3441 12.85C51.1108 11.5167 52.1941 10.4833 53.5941 9.75C54.9941 8.98333 56.6441 8.6 58.5441 8.6C60.7775 8.6 62.7941 9.18333 64.5941 10.35C66.4275 11.5167 67.8608 13.1833 68.8941 15.35C69.9608 17.5167 70.4941 20.05 70.4941 22.95C70.4941 25.85 69.9608 28.4 68.8941 30.6C67.8608 32.7667 66.4275 34.4333 64.5941 35.6C62.7941 36.7667 60.7775 37.35 58.5441 37.35C56.6441 37.35 54.9941 36.9833 53.5941 36.25C52.1941 35.4833 51.1108 34.4333 50.3441 33.1V37H40.5441V-4.76837e-07H50.3441V12.85ZM60.5441 22.95C60.5441 21.1167 60.0441 19.7 59.0441 18.7C58.0775 17.6667 56.8775 17.15 55.4441 17.15C54.0108 17.15 52.7941 17.6667 51.7941 18.7C50.8275 19.7333 50.3441 21.15 50.3441 22.95C50.3441 24.7833 50.8275 26.2167 51.7941 27.25C52.7941 28.2833 54.0108 28.8 55.4441 28.8C56.8775 28.8 58.0775 28.2833 59.0441 27.25C60.0441 26.1833 60.5441 24.75 60.5441 22.95ZM87.5785 37.35C84.7785 37.35 82.2618 36.7667 80.0285 35.6C77.8285 34.4333 76.0952 32.7667 74.8285 30.6C73.5618 28.4333 72.9285 25.8833 72.9285 22.95C72.9285 20.05 73.5618 17.5167 74.8285 15.35C76.1285 13.1833 77.8785 11.5167 80.0785 10.35C82.3118 9.18333 84.8285 8.6 87.6285 8.6C90.4285 8.6 92.9285 9.18333 95.1285 10.35C97.3619 11.5167 99.1119 13.1833 100.379 15.35C101.679 17.5167 102.329 20.05 102.329 22.95C102.329 25.85 101.679 28.4 100.379 30.6C99.1119 32.7667 97.3619 34.4333 95.1285 35.6C92.8952 36.7667 90.3785 37.35 87.5785 37.35ZM87.5785 28.85C88.9452 28.85 90.0785 28.35 90.9785 27.35C91.9118 26.3167 92.3785 24.85 92.3785 22.95C92.3785 21.05 91.9118 19.6 90.9785 18.6C90.0785 17.6 88.9618 17.1 87.6285 17.1C86.2952 17.1 85.1785 17.6 84.2785 18.6C83.3785 19.6 82.9285 21.05 82.9285 22.95C82.9285 24.8833 83.3618 26.35 84.2285 27.35C85.0952 28.35 86.2118 28.85 87.5785 28.85ZM135.016 8.95V37H125.166V33C124.332 34.2667 123.182 35.3 121.716 36.1C120.249 36.8667 118.566 37.25 116.666 37.25C113.399 37.25 110.816 36.1833 108.916 34.05C107.049 31.8833 106.116 28.95 106.116 25.25V8.95H115.866V24C115.866 25.6 116.282 26.8667 117.116 27.8C117.982 28.7 119.116 29.15 120.516 29.15C121.949 29.15 123.082 28.7 123.916 27.8C124.749 26.8667 125.166 25.6 125.166 24V8.95H135.016ZM157.143 28.65V37H152.893C145.726 37 142.143 33.45 142.143 26.35V17.1H138.693V8.95H142.143V2.15H151.993V8.95H157.093V17.1H151.993V26.5C151.993 27.2667 152.16 27.8167 152.493 28.15C152.86 28.4833 153.46 28.65 154.293 28.65H157.143ZM16.1 107.35C12 107.35 8.63333 106.383 6 104.45C3.36667 102.483 1.95 99.6833 1.75 96.05H12.2C12.3 97.2833 12.6667 98.1833 13.3 98.75C13.9333 99.3167 14.75 99.6 15.75 99.6C16.65 99.6 17.3833 99.3833 17.95 98.95C18.55 98.4833 18.85 97.85 18.85 97.05C18.85 96.0167 18.3667 95.2167 17.4 94.65C16.4333 94.0833 14.8667 93.45 12.7 92.75C10.4 91.9833 8.53333 91.25 7.1 90.55C5.7 89.8167 4.46667 88.7667 3.4 87.4C2.36667 86 1.85 84.1833 1.85 81.95C1.85 79.6833 2.41667 77.75 3.55 76.15C4.68333 74.5167 6.25 73.2833 8.25 72.45C10.25 71.6167 12.5167 71.2 15.05 71.2C19.15 71.2 22.4167 72.1667 24.85 74.1C27.3167 76 28.6333 78.6833 28.8 82.15H18.15C18.1167 81.0833 17.7833 80.2833 17.15 79.75C16.55 79.2167 15.7667 78.95 14.8 78.95C14.0667 78.95 13.4667 79.1667 13 79.6C12.5333 80.0333 12.3 80.65 12.3 81.45C12.3 82.1167 12.55 82.7 13.05 83.2C13.5833 83.6667 14.2333 84.0833 15 84.45C15.7667 84.7833 16.9 85.2167 18.4 85.75C20.6333 86.5167 22.4667 87.2833 23.9 88.05C25.3667 88.7833 26.6167 89.8333 27.65 91.2C28.7167 92.5333 29.25 94.2333 29.25 96.3C29.25 98.4 28.7167 100.283 27.65 101.95C26.6167 103.617 25.1 104.933 23.1 105.9C21.1333 106.867 18.8 107.35 16.1 107.35ZM32.2059 92.95C32.2059 90.05 32.7225 87.5167 33.7559 85.35C34.8225 83.1833 36.2559 81.5167 38.0559 80.35C39.8892 79.1833 41.9225 78.6 44.1559 78.6C46.0892 78.6 47.7559 78.9833 49.1559 79.75C50.5559 80.5167 51.6392 81.55 52.4059 82.85V78.95H62.2059V107H52.4059V103.1C51.6392 104.4 50.5392 105.433 49.1059 106.2C47.7059 106.967 46.0559 107.35 44.1559 107.35C41.9225 107.35 39.8892 106.767 38.0559 105.6C36.2559 104.433 34.8225 102.767 33.7559 100.6C32.7225 98.4 32.2059 95.85 32.2059 92.95ZM52.4059 92.95C52.4059 91.15 51.9059 89.7333 50.9059 88.7C49.9392 87.6667 48.7392 87.15 47.3059 87.15C45.8392 87.15 44.6225 87.6667 43.6559 88.7C42.6892 89.7 42.2059 91.1167 42.2059 92.95C42.2059 94.75 42.6892 96.1833 43.6559 97.25C44.6225 98.2833 45.8392 98.8 47.3059 98.8C48.7392 98.8 49.9392 98.2833 50.9059 97.25C51.9059 96.2167 52.4059 94.7833 52.4059 92.95ZM85.3402 107L77.5902 95.5V107H67.7902V70H77.5902V89.95L85.3402 78.95H97.0902L86.0402 93.05L97.2902 107H85.3402ZM98.5633 92.95C98.5633 90.05 99.0799 87.5167 100.113 85.35C101.18 83.1833 102.613 81.5167 104.413 80.35C106.247 79.1833 108.28 78.6 110.513 78.6C112.447 78.6 114.113 78.9833 115.513 79.75C116.913 80.5167 117.997 81.55 118.763 82.85V78.95H128.563V107H118.763V103.1C117.997 104.4 116.897 105.433 115.463 106.2C114.063 106.967 112.413 107.35 110.513 107.35C108.28 107.35 106.247 106.767 104.413 105.6C102.613 104.433 101.18 102.767 100.113 100.6C99.0799 98.4 98.5633 95.85 98.5633 92.95ZM118.763 92.95C118.763 91.15 118.263 89.7333 117.263 88.7C116.297 87.6667 115.097 87.15 113.663 87.15C112.197 87.15 110.98 87.6667 110.013 88.7C109.047 89.7 108.563 91.1167 108.563 92.95C108.563 94.75 109.047 96.1833 110.013 97.25C110.98 98.2833 112.197 98.8 113.663 98.8C115.097 98.8 116.297 98.2833 117.263 97.25C118.263 96.2167 118.763 94.7833 118.763 92.95ZM156.448 101.25H143.948L142.048 107H131.748L144.598 71.75H155.898L168.698 107H158.348L156.448 101.25ZM153.998 93.75L150.198 82.35L146.448 93.75H153.998ZM182.242 78.6C184.142 78.6 185.792 78.9833 187.192 79.75C188.625 80.5167 189.725 81.55 190.492 82.85V78.95H200.292V106.7C200.292 109.333 199.792 111.7 198.792 113.8C197.792 115.933 196.225 117.633 194.092 118.9C191.992 120.167 189.325 120.8 186.092 120.8C181.758 120.8 178.292 119.783 175.692 117.75C173.092 115.717 171.608 112.95 171.242 109.45H180.892C181.092 110.35 181.592 111.05 182.392 111.55C183.192 112.05 184.225 112.3 185.492 112.3C188.825 112.3 190.492 110.433 190.492 106.7V103.1C189.725 104.4 188.625 105.433 187.192 106.2C185.792 106.967 184.142 107.35 182.242 107.35C180.008 107.35 177.975 106.767 176.142 105.6C174.342 104.433 172.908 102.767 171.842 100.6C170.808 98.4 170.292 95.85 170.292 92.95C170.292 90.05 170.808 87.5167 171.842 85.35C172.908 83.1833 174.342 81.5167 176.142 80.35C177.975 79.1833 180.008 78.6 182.242 78.6ZM190.492 92.95C190.492 91.15 189.992 89.7333 188.992 88.7C188.025 87.6667 186.825 87.15 185.392 87.15C183.925 87.15 182.708 87.6667 181.742 88.7C180.775 89.7 180.292 91.1167 180.292 92.95C180.292 94.75 180.775 96.1833 181.742 97.25C182.708 98.2833 183.925 98.8 185.392 98.8C186.825 98.8 188.025 98.2833 188.992 97.25C189.992 96.2167 190.492 94.7833 190.492 92.95ZM232.676 92.65C232.676 93.4167 232.626 94.1833 232.526 94.95H213.976C214.076 96.4833 214.493 97.6333 215.226 98.4C215.993 99.1333 216.96 99.5 218.126 99.5C219.76 99.5 220.926 98.7667 221.626 97.3H232.076C231.643 99.2333 230.793 100.967 229.526 102.5C228.293 104 226.726 105.183 224.826 106.05C222.926 106.917 220.826 107.35 218.526 107.35C215.76 107.35 213.293 106.767 211.126 105.6C208.993 104.433 207.31 102.767 206.076 100.6C204.876 98.4333 204.276 95.8833 204.276 92.95C204.276 90.0167 204.876 87.4833 206.076 85.35C207.276 83.1833 208.943 81.5167 211.076 80.35C213.243 79.1833 215.726 78.6 218.526 78.6C221.293 78.6 223.743 79.1667 225.876 80.3C228.01 81.4333 229.676 83.0667 230.876 85.2C232.076 87.3 232.676 89.7833 232.676 92.65ZM222.676 90.2C222.676 89 222.276 88.0667 221.476 87.4C220.676 86.7 219.676 86.35 218.476 86.35C217.276 86.35 216.293 86.6833 215.526 87.35C214.76 87.9833 214.26 88.9333 214.026 90.2H222.676ZM255.037 78.7C258.27 78.7 260.837 79.7833 262.737 81.95C264.637 84.0833 265.587 86.9833 265.587 90.65V107H255.787V91.95C255.787 90.35 255.37 89.1 254.537 88.2C253.703 87.2667 252.587 86.8 251.187 86.8C249.72 86.8 248.57 87.2667 247.737 88.2C246.903 89.1 246.487 90.35 246.487 91.95V107H236.687V78.95H246.487V82.95C247.353 81.6833 248.52 80.6667 249.987 79.9C251.453 79.1 253.137 78.7 255.037 78.7ZM269.364 92.95C269.364 90.05 269.964 87.5167 271.164 85.35C272.364 83.1833 274.031 81.5167 276.164 80.35C278.331 79.1833 280.797 78.6 283.564 78.6C287.131 78.6 290.131 79.5833 292.564 81.55C294.997 83.4833 296.564 86.2 297.264 89.7H286.864C286.264 87.8667 285.097 86.95 283.364 86.95C282.131 86.95 281.147 87.4667 280.414 88.5C279.714 89.5 279.364 90.9833 279.364 92.95C279.364 94.9167 279.714 96.4167 280.414 97.45C281.147 98.4833 282.131 99 283.364 99C285.131 99 286.297 98.0833 286.864 96.25H297.264C296.564 99.7167 294.997 102.433 292.564 104.4C290.131 106.367 287.131 107.35 283.564 107.35C280.797 107.35 278.331 106.767 276.164 105.6C274.031 104.433 272.364 102.767 271.164 100.6C269.964 98.4333 269.364 95.8833 269.364 92.95ZM331.535 78.95L313.735 120.35H303.085L309.785 105.8L298.285 78.95H309.185L315.085 94.85L320.785 78.95H331.535Z" fill="white"/>
</svg>
