<svg width="31" height="30" viewBox="0 0 31 30" fill="none" xmlns="http://www.w3.org/2000/svg">
<path d="M22.0667 14.1834L24.6833 11.5668L18.4333 5.31677L15.8167 7.93344L8.91667 1.05011C7.61667 -0.249895 5.5 -0.249895 4.2 1.05011L1.03333 4.21677C-0.266667 5.51677 -0.266667 7.63344 1.03333 8.93344L7.91667 15.8168L0 23.7501V30.0001H6.25L14.1833 22.0668L21.0667 28.9501C22.65 30.5334 24.7833 29.9501 25.7833 28.9501L28.95 25.7834C30.25 24.4834 30.25 22.3668 28.95 21.0668L22.0667 14.1834ZM10.3 13.4501L3.4 6.56677L6.55 3.4001L8.66667 5.51677L6.7 7.50011L9.05 9.85011L11.0333 7.86677L13.45 10.2834L10.3 13.4501ZM23.4333 26.6001L16.55 19.7168L19.7167 16.5501L22.1333 18.9668L20.15 20.9501L22.5 23.3001L24.4833 21.3168L26.6 23.4334L23.4333 26.6001ZM29.5167 6.73344C29.6712 6.57925 29.7938 6.3961 29.8774 6.19448C29.961 5.99286 30.0041 5.77672 30.0041 5.55844C30.0041 5.34016 29.961 5.12402 29.8774 4.9224C29.7938 4.72078 29.6712 4.53763 29.5167 4.38344L25.6167 0.483438C24.8333 -0.299895 23.75 0.000105033 23.2667 0.483438L20.2167 3.53344L26.4667 9.78344L29.5167 6.73344Z" fill="#A1C5E9"/>
</svg>
